<?xml version="1.0" encoding="UTF-8" standalone="no"?>
<svg
   xmlns:dc="http://purl.org/dc/elements/1.1/"
   xmlns:cc="http://creativecommons.org/ns#"
   xmlns:rdf="http://www.w3.org/1999/02/22-rdf-syntax-ns#"
   xmlns:svg="http://www.w3.org/2000/svg"
   xmlns="http://www.w3.org/2000/svg"
   xmlns:xlink="http://www.w3.org/1999/xlink"
   xmlns:sodipodi="http://sodipodi.sourceforge.net/DTD/sodipodi-0.dtd"
   xmlns:inkscape="http://www.inkscape.org/namespaces/inkscape"
   viewBox="0 0 63.999999 72.16516"
   fill="#ffffff"
   fill-rule="evenodd"
   stroke="#000000"
   stroke-linecap="round"
   stroke-linejoin="round"
   version="1.1"
   id="svg15"
   sodipodi:docname="react.svg"
   width="64"
   height="72.165161"
   inkscape:version="1.0.2 (e86c870879, 2021-01-15)">
  <metadata
     id="metadata21">
    <rdf:RDF>
      <cc:Work
         rdf:about="">
        <dc:format>image/svg+xml</dc:format>
        <dc:type
           rdf:resource="http://purl.org/dc/dcmitype/StillImage" />
        <dc:title></dc:title>
      </cc:Work>
    </rdf:RDF>
  </metadata>
  <defs
     id="defs19">
    <linearGradient
       inkscape:collect="always"
       id="linearGradient854">
      <stop
         style="stop-color:#000000;stop-opacity:1;"
         offset="0"
         id="stop850" />
      <stop
         style="stop-color:#000000;stop-opacity:0;"
         offset="1"
         id="stop852" />
    </linearGradient>
    <linearGradient
       inkscape:collect="always"
       xlink:href="#linearGradient854"
       id="linearGradient856"
       x1="13.045888"
       y1="63.092506"
       x2="47.730698"
       y2="63.092506"
       gradientUnits="userSpaceOnUse" />
  </defs>
  <sodipodi:namedview
     pagecolor="#ffffff"
     bordercolor="#666666"
     borderopacity="1"
     objecttolerance="10"
     gridtolerance="10"
     guidetolerance="10"
     inkscape:pageopacity="0"
     inkscape:pageshadow="2"
     inkscape:window-width="1920"
     inkscape:window-height="1017"
     id="namedview17"
     showgrid="false"
     units="px"
     fit-margin-top="0"
     fit-margin-left="0"
     fit-margin-right="0"
     fit-margin-bottom="0"
     inkscape:zoom="7.3613467"
     inkscape:cx="29.341171"
     inkscape:cy="38.102806"
     inkscape:window-x="-8"
     inkscape:window-y="-8"
     inkscape:window-maximized="1"
     inkscape:current-layer="svg15" />
  <use
     xlink:href="#A"
     x="1.367"
     y="1.367"
     id="use2"
     width="100%"
     height="100%" />
  <symbol
     id="A"
     overflow="visible"
     transform="translate(0,0.00779998)">
    <path
       d="m 24.918,27.048 c 0,-3.166 2.549,-5.715 5.715,-5.715 3.166,0 5.715,2.549 5.715,5.715 0,3.166 -2.549,5.715 -5.715,5.715 -3.166,0 -5.715,-2.549 -5.715,-5.715 z"
       stroke="none"
       fill="#00d8ff"
       id="path4" />
    <g
       stroke="#00d8ff"
       fill="none"
       stroke-width="2.734"
       id="g12">
      <path
         d="m 30.633,15.428 c 7.673,0 14.801,1.101 20.176,2.951 6.476,2.229 10.457,5.609 10.457,8.669 0,3.19 -4.22,6.779 -11.174,9.083 -5.257,1.743 -12.176,2.651 -19.46,2.651 -7.468,0 -14.54,-0.853 -19.856,-2.67 C 4.05,33.812 0,30.176 0,27.048 0,24.013 3.802,20.66 10.186,18.434 c 5.395,-1.88 12.699,-3.006 20.447,-3.006 z"
         id="path6" />
      <path
         d="M 20.517,21.272 C 24.351,14.625 28.865,9 33.153,5.268 38.32,0.772 43.236,-0.989 45.887,0.54 c 2.762,1.593 3.764,7.042 2.286,14.217 -1.117,5.425 -3.786,11.872 -7.425,18.182 -3.731,6.469 -8.003,12.169 -12.232,15.866 -5.352,4.679 -10.526,6.372 -13.236,4.809 -2.629,-1.515 -3.635,-6.484 -2.373,-13.127 1.066,-5.613 3.74,-12.502 7.61,-19.214 z"
         id="path8" />
      <path
         d="M 20.528,32.955 C 16.684,26.316 14.066,19.594 12.975,14.015 11.66,7.294 12.59,2.156 15.238,0.622 c 2.76,-1.598 7.981,0.256 13.458,5.12 4.142,3.677 8.395,9.209 12.044,15.513 3.742,6.463 6.546,13.01 7.637,18.521 1.38,6.973 0.262,12.301 -2.444,13.869 -2.627,1.521 -7.433,-0.089 -12.559,-4.5 -4.33,-3.725 -8.963,-9.484 -12.846,-16.19 z"
         id="path10" />
    </g>
  </symbol>
  <text
     xml:space="preserve"
     style="font-style:normal;font-variant:normal;font-weight:normal;font-stretch:normal;font-size:18.2802px;line-height:0.95;font-family:Arial;-inkscape-font-specification:Arial;fill:#000000;fill-opacity:1;stroke:none;stroke-width:1.37102"
     x="7.4716859"
     y="71.950935"
     id="text848"><tspan
       sodipodi:role="line"
       id="tspan846"
       x="7.4716859"
       y="71.950935"
       style="fill:#000000;fill-opacity:1;stroke:none;stroke-width:1.37102">React</tspan></text>
</svg>
